<svg height="215pt" viewBox="0.00 0.00 275.68 215.00" width="276pt" xmlns="http://www.w3.org/2000/svg" xmlns:xlink="http://www.w3.org/1999/xlink">
<g class="graph" id="graph0" transform="scale(1 1) rotate(0) translate(4 211)">
<title>G</title>
<polygon fill="#ffffff" points="-4,4 -4,-211 271.6797,-211 271.6797,4 -4,4" stroke="transparent"/>
<!-- 4444522448 -->
<g class="node" id="node1">
<title>4444522448</title>
<polygon fill="none" points="0,-162.5 0,-206.5 267.6797,-206.5 267.6797,-162.5 0,-162.5" stroke="#000000"/>
<text fill="#000000" font-family="Times,serif" font-size="14.00" text-anchor="middle" x="64.1812" y="-180.3">input_1: InputLayer</text>
<polyline fill="none" points="128.3623,-162.5 128.3623,-206.5 " stroke="#000000"/>
<text fill="#000000" font-family="Times,serif" font-size="14.00" text-anchor="middle" x="156.1968" y="-191.3">input:</text>
<polyline fill="none" points="128.3623,-184.5 184.0313,-184.5 " stroke="#000000"/>
<text fill="#000000" font-family="Times,serif" font-size="14.00" text-anchor="middle" x="156.1968" y="-169.3">output:</text>
<polyline fill="none" points="184.0313,-162.5 184.0313,-206.5 " stroke="#000000"/>
<text fill="#000000" font-family="Times,serif" font-size="14.00" text-anchor="middle" x="225.8555" y="-191.3">(None, 784)</text>
<polyline fill="none" points="184.0313,-184.5 267.6797,-184.5 " stroke="#000000"/>
<text fill="#000000" font-family="Times,serif" font-size="14.00" text-anchor="middle" x="225.8555" y="-169.3">(None, 784)</text>
</g>
<!-- 4444522512 -->
<g class="node" id="node2">
<title>4444522512</title>
<polygon fill="none" points="12.0552,-81.5 12.0552,-125.5 255.6245,-125.5 255.6245,-81.5 12.0552,-81.5" stroke="#000000"/>
<text fill="#000000" font-family="Times,serif" font-size="14.00" text-anchor="middle" x="64.1812" y="-99.3">dense_1: Dense</text>
<polyline fill="none" points="116.3071,-81.5 116.3071,-125.5 " stroke="#000000"/>
<text fill="#000000" font-family="Times,serif" font-size="14.00" text-anchor="middle" x="144.1416" y="-110.3">input:</text>
<polyline fill="none" points="116.3071,-103.5 171.9761,-103.5 " stroke="#000000"/>
<text fill="#000000" font-family="Times,serif" font-size="14.00" text-anchor="middle" x="144.1416" y="-88.3">output:</text>
<polyline fill="none" points="171.9761,-81.5 171.9761,-125.5 " stroke="#000000"/>
<text fill="#000000" font-family="Times,serif" font-size="14.00" text-anchor="middle" x="213.8003" y="-110.3">(None, 784)</text>
<polyline fill="none" points="171.9761,-103.5 255.6245,-103.5 " stroke="#000000"/>
<text fill="#000000" font-family="Times,serif" font-size="14.00" text-anchor="middle" x="213.8003" y="-88.3">(None, 32)</text>
</g>
<!-- 4444522448&#45;&gt;4444522512 -->
<g class="edge" id="edge1">
<title>4444522448-&gt;4444522512</title>
<path d="M133.8398,-162.3664C133.8398,-154.1516 133.8398,-144.6579 133.8398,-135.7252" fill="none" stroke="#000000"/>
<polygon fill="#000000" points="137.3399,-135.6068 133.8398,-125.6068 130.3399,-135.6069 137.3399,-135.6068" stroke="#000000"/>
</g>
<!-- 4444716112 -->
<g class="node" id="node3">
<title>4444716112</title>
<polygon fill="none" points="12.0552,-.5 12.0552,-44.5 255.6245,-44.5 255.6245,-.5 12.0552,-.5" stroke="#000000"/>
<text fill="#000000" font-family="Times,serif" font-size="14.00" text-anchor="middle" x="64.1812" y="-18.3">dense_2: Dense</text>
<polyline fill="none" points="116.3071,-.5 116.3071,-44.5 " stroke="#000000"/>
<text fill="#000000" font-family="Times,serif" font-size="14.00" text-anchor="middle" x="144.1416" y="-29.3">input:</text>
<polyline fill="none" points="116.3071,-22.5 171.9761,-22.5 " stroke="#000000"/>
<text fill="#000000" font-family="Times,serif" font-size="14.00" text-anchor="middle" x="144.1416" y="-7.3">output:</text>
<polyline fill="none" points="171.9761,-.5 171.9761,-44.5 " stroke="#000000"/>
<text fill="#000000" font-family="Times,serif" font-size="14.00" text-anchor="middle" x="213.8003" y="-29.3">(None, 32)</text>
<polyline fill="none" points="171.9761,-22.5 255.6245,-22.5 " stroke="#000000"/>
<text fill="#000000" font-family="Times,serif" font-size="14.00" text-anchor="middle" x="213.8003" y="-7.3">(None, 784)</text>
</g>
<!-- 4444522512&#45;&gt;4444716112 -->
<g class="edge" id="edge2">
<title>4444522512-&gt;4444716112</title>
<path d="M133.8398,-81.3664C133.8398,-73.1516 133.8398,-63.6579 133.8398,-54.7252" fill="none" stroke="#000000"/>
<polygon fill="#000000" points="137.3399,-54.6068 133.8398,-44.6068 130.3399,-54.6069 137.3399,-54.6068" stroke="#000000"/>
</g>
</g>
</svg>