<svg height="215pt" viewBox="0.00 0.00 330.12 215.00" width="330pt" xmlns="http://www.w3.org/2000/svg" xmlns:xlink="http://www.w3.org/1999/xlink">
<g class="graph" id="graph0" transform="scale(1 1) rotate(0) translate(4 211)">
<title>G</title>
<polygon fill="#ffffff" points="-4,4 -4,-211 326.1211,-211 326.1211,4 -4,4" stroke="transparent"/>
<!-- 4791102416 -->
<g class="node" id="node1">
<title>4791102416</title>
<polygon fill="none" points="0,-162.5 0,-206.5 322.1211,-206.5 322.1211,-162.5 0,-162.5" stroke="#000000"/>
<text fill="#000000" font-family="Times,serif" font-size="14.00" text-anchor="middle" x="79.7397" y="-180.3">lstm_input_4: InputLayer</text>
<polyline fill="none" points="159.4795,-162.5 159.4795,-206.5 " stroke="#000000"/>
<text fill="#000000" font-family="Times,serif" font-size="14.00" text-anchor="middle" x="187.314" y="-191.3">input:</text>
<polyline fill="none" points="159.4795,-184.5 215.1484,-184.5 " stroke="#000000"/>
<text fill="#000000" font-family="Times,serif" font-size="14.00" text-anchor="middle" x="187.314" y="-169.3">output:</text>
<polyline fill="none" points="215.1484,-162.5 215.1484,-206.5 " stroke="#000000"/>
<text fill="#000000" font-family="Times,serif" font-size="14.00" text-anchor="middle" x="268.6348" y="-191.3">(None, None, 3)</text>
<polyline fill="none" points="215.1484,-184.5 322.1211,-184.5 " stroke="#000000"/>
<text fill="#000000" font-family="Times,serif" font-size="14.00" text-anchor="middle" x="268.6348" y="-169.3">(None, None, 3)</text>
</g>
<!-- 4791102608 -->
<g class="node" id="node2">
<title>4791102608</title>
<polygon fill="none" points="30.3174,-81.5 30.3174,-125.5 291.8037,-125.5 291.8037,-81.5 30.3174,-81.5" stroke="#000000"/>
<text fill="#000000" font-family="Times,serif" font-size="14.00" text-anchor="middle" x="79.7397" y="-99.3">lstm_4: LSTM</text>
<polyline fill="none" points="129.1621,-81.5 129.1621,-125.5 " stroke="#000000"/>
<text fill="#000000" font-family="Times,serif" font-size="14.00" text-anchor="middle" x="156.9966" y="-110.3">input:</text>
<polyline fill="none" points="129.1621,-103.5 184.8311,-103.5 " stroke="#000000"/>
<text fill="#000000" font-family="Times,serif" font-size="14.00" text-anchor="middle" x="156.9966" y="-88.3">output:</text>
<polyline fill="none" points="184.8311,-81.5 184.8311,-125.5 " stroke="#000000"/>
<text fill="#000000" font-family="Times,serif" font-size="14.00" text-anchor="middle" x="238.3174" y="-110.3">(None, None, 3)</text>
<polyline fill="none" points="184.8311,-103.5 291.8037,-103.5 " stroke="#000000"/>
<text fill="#000000" font-family="Times,serif" font-size="14.00" text-anchor="middle" x="238.1553" y="-88.3">(None, 4)</text>
</g>
<!-- 4791102416&#45;&gt;4791102608 -->
<g class="edge" id="edge1">
<title>4791102416-&gt;4791102608</title>
<path d="M161.0605,-162.3664C161.0605,-154.1516 161.0605,-144.6579 161.0605,-135.7252" fill="none" stroke="#000000"/>
<polygon fill="#000000" points="164.5606,-135.6068 161.0605,-125.6068 157.5606,-135.6069 164.5606,-135.6068" stroke="#000000"/>
</g>
<!-- 4791100944 -->
<g class="node" id="node3">
<title>4791100944</title>
<polygon fill="none" points="42.7759,-.5 42.7759,-44.5 279.3452,-44.5 279.3452,-.5 42.7759,-.5" stroke="#000000"/>
<text fill="#000000" font-family="Times,serif" font-size="14.00" text-anchor="middle" x="98.4019" y="-18.3">dense_10: Dense</text>
<polyline fill="none" points="154.0278,-.5 154.0278,-44.5 " stroke="#000000"/>
<text fill="#000000" font-family="Times,serif" font-size="14.00" text-anchor="middle" x="181.8623" y="-29.3">input:</text>
<polyline fill="none" points="154.0278,-22.5 209.6968,-22.5 " stroke="#000000"/>
<text fill="#000000" font-family="Times,serif" font-size="14.00" text-anchor="middle" x="181.8623" y="-7.3">output:</text>
<polyline fill="none" points="209.6968,-.5 209.6968,-44.5 " stroke="#000000"/>
<text fill="#000000" font-family="Times,serif" font-size="14.00" text-anchor="middle" x="244.521" y="-29.3">(None, 4)</text>
<polyline fill="none" points="209.6968,-22.5 279.3452,-22.5 " stroke="#000000"/>
<text fill="#000000" font-family="Times,serif" font-size="14.00" text-anchor="middle" x="244.521" y="-7.3">(None, 1)</text>
</g>
<!-- 4791102608&#45;&gt;4791100944 -->
<g class="edge" id="edge2">
<title>4791102608-&gt;4791100944</title>
<path d="M161.0605,-81.3664C161.0605,-73.1516 161.0605,-63.6579 161.0605,-54.7252" fill="none" stroke="#000000"/>
<polygon fill="#000000" points="164.5606,-54.6068 161.0605,-44.6068 157.5606,-54.6069 164.5606,-54.6068" stroke="#000000"/>
</g>
</g>
</svg>