<svg height="296pt" viewBox="0.00 0.00 290.47 296.00" width="290pt" xmlns="http://www.w3.org/2000/svg" xmlns:xlink="http://www.w3.org/1999/xlink">
<g class="graph" id="graph0" transform="scale(1 1) rotate(0) translate(4 292)">
<title>G</title>
<polygon fill="#ffffff" points="-4,4 -4,-292 286.4727,-292 286.4727,4 -4,4" stroke="transparent"/>
<!-- 4423780880 -->
<g class="node" id="node1">
<title>4423780880</title>
<polygon fill="none" points="0,-243.5 0,-287.5 282.4727,-287.5 282.4727,-243.5 0,-243.5" stroke="#000000"/>
<text fill="#000000" font-family="Times,serif" font-size="14.00" text-anchor="middle" x="79.7397" y="-261.3">lstm_input_2: InputLayer</text>
<polyline fill="none" points="159.4795,-243.5 159.4795,-287.5 " stroke="#000000"/>
<text fill="#000000" font-family="Times,serif" font-size="14.00" text-anchor="middle" x="187.314" y="-272.3">input:</text>
<polyline fill="none" points="159.4795,-265.5 215.1484,-265.5 " stroke="#000000"/>
<text fill="#000000" font-family="Times,serif" font-size="14.00" text-anchor="middle" x="187.314" y="-250.3">output:</text>
<polyline fill="none" points="215.1484,-243.5 215.1484,-287.5 " stroke="#000000"/>
<text fill="#000000" font-family="Times,serif" font-size="14.00" text-anchor="middle" x="248.8105" y="-272.3">(25, 1, 1)</text>
<polyline fill="none" points="215.1484,-265.5 282.4727,-265.5 " stroke="#000000"/>
<text fill="#000000" font-family="Times,serif" font-size="14.00" text-anchor="middle" x="248.8105" y="-250.3">(25, 1, 1)</text>
</g>
<!-- 4499010000 -->
<g class="node" id="node2">
<title>4499010000</title>
<polygon fill="none" points="26.8174,-162.5 26.8174,-206.5 255.6553,-206.5 255.6553,-162.5 26.8174,-162.5" stroke="#000000"/>
<text fill="#000000" font-family="Times,serif" font-size="14.00" text-anchor="middle" x="76.2397" y="-180.3">lstm_3: LSTM</text>
<polyline fill="none" points="125.6621,-162.5 125.6621,-206.5 " stroke="#000000"/>
<text fill="#000000" font-family="Times,serif" font-size="14.00" text-anchor="middle" x="153.4966" y="-191.3">input:</text>
<polyline fill="none" points="125.6621,-184.5 181.3311,-184.5 " stroke="#000000"/>
<text fill="#000000" font-family="Times,serif" font-size="14.00" text-anchor="middle" x="153.4966" y="-169.3">output:</text>
<polyline fill="none" points="181.3311,-162.5 181.3311,-206.5 " stroke="#000000"/>
<text fill="#000000" font-family="Times,serif" font-size="14.00" text-anchor="middle" x="218.4932" y="-191.3">(25, 1, 1)</text>
<polyline fill="none" points="181.3311,-184.5 255.6553,-184.5 " stroke="#000000"/>
<text fill="#000000" font-family="Times,serif" font-size="14.00" text-anchor="middle" x="218.4932" y="-169.3">(25, 1, 50)</text>
</g>
<!-- 4423780880&#45;&gt;4499010000 -->
<g class="edge" id="edge1">
<title>4423780880-&gt;4499010000</title>
<path d="M141.2363,-243.3664C141.2363,-235.1516 141.2363,-225.6579 141.2363,-216.7252" fill="none" stroke="#000000"/>
<polygon fill="#000000" points="144.7364,-216.6068 141.2363,-206.6068 137.7364,-216.6069 144.7364,-216.6068" stroke="#000000"/>
</g>
<!-- 4499009936 -->
<g class="node" id="node3">
<title>4499009936</title>
<polygon fill="none" points="26.8174,-81.5 26.8174,-125.5 255.6553,-125.5 255.6553,-81.5 26.8174,-81.5" stroke="#000000"/>
<text fill="#000000" font-family="Times,serif" font-size="14.00" text-anchor="middle" x="76.2397" y="-99.3">lstm_4: LSTM</text>
<polyline fill="none" points="125.6621,-81.5 125.6621,-125.5 " stroke="#000000"/>
<text fill="#000000" font-family="Times,serif" font-size="14.00" text-anchor="middle" x="153.4966" y="-110.3">input:</text>
<polyline fill="none" points="125.6621,-103.5 181.3311,-103.5 " stroke="#000000"/>
<text fill="#000000" font-family="Times,serif" font-size="14.00" text-anchor="middle" x="153.4966" y="-88.3">output:</text>
<polyline fill="none" points="181.3311,-81.5 181.3311,-125.5 " stroke="#000000"/>
<text fill="#000000" font-family="Times,serif" font-size="14.00" text-anchor="middle" x="218.4932" y="-110.3">(25, 1, 50)</text>
<polyline fill="none" points="181.3311,-103.5 255.6553,-103.5 " stroke="#000000"/>
<text fill="#000000" font-family="Times,serif" font-size="14.00" text-anchor="middle" x="218.4932" y="-88.3">(25, 50)</text>
</g>
<!-- 4499010000&#45;&gt;4499009936 -->
<g class="edge" id="edge2">
<title>4499010000-&gt;4499009936</title>
<path d="M141.2363,-162.3664C141.2363,-154.1516 141.2363,-144.6579 141.2363,-135.7252" fill="none" stroke="#000000"/>
<polygon fill="#000000" points="144.7364,-135.6068 141.2363,-125.6068 137.7364,-135.6069 144.7364,-135.6068" stroke="#000000"/>
</g>
<!-- 4503503184 -->
<g class="node" id="node4">
<title>4503503184</title>
<polygon fill="none" points="31.1138,-.5 31.1138,-44.5 251.3589,-44.5 251.3589,-.5 31.1138,-.5" stroke="#000000"/>
<text fill="#000000" font-family="Times,serif" font-size="14.00" text-anchor="middle" x="83.2397" y="-18.3">dense_2: Dense</text>
<polyline fill="none" points="135.3657,-.5 135.3657,-44.5 " stroke="#000000"/>
<text fill="#000000" font-family="Times,serif" font-size="14.00" text-anchor="middle" x="163.2002" y="-29.3">input:</text>
<polyline fill="none" points="135.3657,-22.5 191.0347,-22.5 " stroke="#000000"/>
<text fill="#000000" font-family="Times,serif" font-size="14.00" text-anchor="middle" x="163.2002" y="-7.3">output:</text>
<polyline fill="none" points="191.0347,-.5 191.0347,-44.5 " stroke="#000000"/>
<text fill="#000000" font-family="Times,serif" font-size="14.00" text-anchor="middle" x="221.1968" y="-29.3">(25, 50)</text>
<polyline fill="none" points="191.0347,-22.5 251.3589,-22.5 " stroke="#000000"/>
<text fill="#000000" font-family="Times,serif" font-size="14.00" text-anchor="middle" x="221.1968" y="-7.3">(25, 1)</text>
</g>
<!-- 4499009936&#45;&gt;4503503184 -->
<g class="edge" id="edge3">
<title>4499009936-&gt;4503503184</title>
<path d="M141.2363,-81.3664C141.2363,-73.1516 141.2363,-63.6579 141.2363,-54.7252" fill="none" stroke="#000000"/>
<polygon fill="#000000" points="144.7364,-54.6068 141.2363,-44.6068 137.7364,-54.6069 144.7364,-54.6068" stroke="#000000"/>
</g>
</g>
</svg>