<svg height="701pt" viewBox="0.00 0.00 391.56 701.00" width="392pt" xmlns="http://www.w3.org/2000/svg" xmlns:xlink="http://www.w3.org/1999/xlink">
<g class="graph" id="graph0" transform="scale(1 1) rotate(0) translate(4 697)">
<title>G</title>
<polygon fill="#ffffff" points="-4,4 -4,-697 387.5625,-697 387.5625,4 -4,4" stroke="transparent"/>
<!-- 4500457360 -->
<g class="node" id="node1">
<title>4500457360</title>
<polygon fill="none" points="0,-648.5 0,-692.5 383.5625,-692.5 383.5625,-648.5 0,-648.5" stroke="#000000"/>
<text fill="#000000" font-family="Times,serif" font-size="14.00" text-anchor="middle" x="108.1226" y="-666.3">convolution2d_input_2: InputLayer</text>
<polyline fill="none" points="216.2451,-648.5 216.2451,-692.5 " stroke="#000000"/>
<text fill="#000000" font-family="Times,serif" font-size="14.00" text-anchor="middle" x="244.0796" y="-677.3">input:</text>
<polyline fill="none" points="216.2451,-670.5 271.9141,-670.5 " stroke="#000000"/>
<text fill="#000000" font-family="Times,serif" font-size="14.00" text-anchor="middle" x="244.0796" y="-655.3">output:</text>
<polyline fill="none" points="271.9141,-648.5 271.9141,-692.5 " stroke="#000000"/>
<text fill="#000000" font-family="Times,serif" font-size="14.00" text-anchor="middle" x="327.7383" y="-677.3">(None, 3, 32, 32)</text>
<polyline fill="none" points="271.9141,-670.5 383.5625,-670.5 " stroke="#000000"/>
<text fill="#000000" font-family="Times,serif" font-size="14.00" text-anchor="middle" x="327.7383" y="-655.3">(None, 3, 32, 32)</text>
</g>
<!-- 4499476880 -->
<g class="node" id="node2">
<title>4499476880</title>
<polygon fill="none" points="1.9277,-567.5 1.9277,-611.5 381.6348,-611.5 381.6348,-567.5 1.9277,-567.5" stroke="#000000"/>
<text fill="#000000" font-family="Times,serif" font-size="14.00" text-anchor="middle" x="104.6226" y="-585.3">convolution2d_3: Convolution2D</text>
<polyline fill="none" points="207.3174,-567.5 207.3174,-611.5 " stroke="#000000"/>
<text fill="#000000" font-family="Times,serif" font-size="14.00" text-anchor="middle" x="235.1519" y="-596.3">input:</text>
<polyline fill="none" points="207.3174,-589.5 262.9863,-589.5 " stroke="#000000"/>
<text fill="#000000" font-family="Times,serif" font-size="14.00" text-anchor="middle" x="235.1519" y="-574.3">output:</text>
<polyline fill="none" points="262.9863,-567.5 262.9863,-611.5 " stroke="#000000"/>
<text fill="#000000" font-family="Times,serif" font-size="14.00" text-anchor="middle" x="322.3105" y="-596.3">(None, 3, 32, 32)</text>
<polyline fill="none" points="262.9863,-589.5 381.6348,-589.5 " stroke="#000000"/>
<text fill="#000000" font-family="Times,serif" font-size="14.00" text-anchor="middle" x="322.3105" y="-574.3">(None, 32, 32, 32)</text>
</g>
<!-- 4500457360&#45;&gt;4499476880 -->
<g class="edge" id="edge1">
<title>4500457360-&gt;4499476880</title>
<path d="M191.7813,-648.3664C191.7813,-640.1516 191.7813,-630.6579 191.7813,-621.7252" fill="none" stroke="#000000"/>
<polygon fill="#000000" points="195.2813,-621.6068 191.7813,-611.6068 188.2813,-621.6069 195.2813,-621.6068" stroke="#000000"/>
</g>
<!-- 4499476816 -->
<g class="node" id="node3">
<title>4499476816</title>
<polygon fill="none" points="40.8208,-486.5 40.8208,-530.5 342.7417,-530.5 342.7417,-486.5 40.8208,-486.5" stroke="#000000"/>
<text fill="#000000" font-family="Times,serif" font-size="14.00" text-anchor="middle" x="104.6226" y="-504.3">dropout_3: Dropout</text>
<polyline fill="none" points="168.4243,-486.5 168.4243,-530.5 " stroke="#000000"/>
<text fill="#000000" font-family="Times,serif" font-size="14.00" text-anchor="middle" x="196.2588" y="-515.3">input:</text>
<polyline fill="none" points="168.4243,-508.5 224.0933,-508.5 " stroke="#000000"/>
<text fill="#000000" font-family="Times,serif" font-size="14.00" text-anchor="middle" x="196.2588" y="-493.3">output:</text>
<polyline fill="none" points="224.0933,-486.5 224.0933,-530.5 " stroke="#000000"/>
<text fill="#000000" font-family="Times,serif" font-size="14.00" text-anchor="middle" x="283.4175" y="-515.3">(None, 32, 32, 32)</text>
<polyline fill="none" points="224.0933,-508.5 342.7417,-508.5 " stroke="#000000"/>
<text fill="#000000" font-family="Times,serif" font-size="14.00" text-anchor="middle" x="283.4175" y="-493.3">(None, 32, 32, 32)</text>
</g>
<!-- 4499476880&#45;&gt;4499476816 -->
<g class="edge" id="edge2">
<title>4499476880-&gt;4499476816</title>
<path d="M191.7813,-567.3664C191.7813,-559.1516 191.7813,-549.6579 191.7813,-540.7252" fill="none" stroke="#000000"/>
<polygon fill="#000000" points="195.2813,-540.6068 191.7813,-530.6068 188.2813,-540.6069 195.2813,-540.6068" stroke="#000000"/>
</g>
<!-- 4500882768 -->
<g class="node" id="node4">
<title>4500882768</title>
<polygon fill="none" points="1.9277,-405.5 1.9277,-449.5 381.6348,-449.5 381.6348,-405.5 1.9277,-405.5" stroke="#000000"/>
<text fill="#000000" font-family="Times,serif" font-size="14.00" text-anchor="middle" x="104.6226" y="-423.3">convolution2d_4: Convolution2D</text>
<polyline fill="none" points="207.3174,-405.5 207.3174,-449.5 " stroke="#000000"/>
<text fill="#000000" font-family="Times,serif" font-size="14.00" text-anchor="middle" x="235.1519" y="-434.3">input:</text>
<polyline fill="none" points="207.3174,-427.5 262.9863,-427.5 " stroke="#000000"/>
<text fill="#000000" font-family="Times,serif" font-size="14.00" text-anchor="middle" x="235.1519" y="-412.3">output:</text>
<polyline fill="none" points="262.9863,-405.5 262.9863,-449.5 " stroke="#000000"/>
<text fill="#000000" font-family="Times,serif" font-size="14.00" text-anchor="middle" x="322.3105" y="-434.3">(None, 32, 32, 32)</text>
<polyline fill="none" points="262.9863,-427.5 381.6348,-427.5 " stroke="#000000"/>
<text fill="#000000" font-family="Times,serif" font-size="14.00" text-anchor="middle" x="322.3105" y="-412.3">(None, 32, 32, 32)</text>
</g>
<!-- 4499476816&#45;&gt;4500882768 -->
<g class="edge" id="edge3">
<title>4499476816-&gt;4500882768</title>
<path d="M191.7813,-486.3664C191.7813,-478.1516 191.7813,-468.6579 191.7813,-459.7252" fill="none" stroke="#000000"/>
<polygon fill="#000000" points="195.2813,-459.6068 191.7813,-449.6068 188.2813,-459.6069 195.2813,-459.6068" stroke="#000000"/>
</g>
<!-- 4500274000 -->
<g class="node" id="node5">
<title>4500274000</title>
<polygon fill="none" points="2.3174,-324.5 2.3174,-368.5 381.2451,-368.5 381.2451,-324.5 2.3174,-324.5" stroke="#000000"/>
<text fill="#000000" font-family="Times,serif" font-size="14.00" text-anchor="middle" x="104.6226" y="-342.3">maxpooling2d_2: MaxPooling2D</text>
<polyline fill="none" points="206.9277,-324.5 206.9277,-368.5 " stroke="#000000"/>
<text fill="#000000" font-family="Times,serif" font-size="14.00" text-anchor="middle" x="234.7622" y="-353.3">input:</text>
<polyline fill="none" points="206.9277,-346.5 262.5967,-346.5 " stroke="#000000"/>
<text fill="#000000" font-family="Times,serif" font-size="14.00" text-anchor="middle" x="234.7622" y="-331.3">output:</text>
<polyline fill="none" points="262.5967,-324.5 262.5967,-368.5 " stroke="#000000"/>
<text fill="#000000" font-family="Times,serif" font-size="14.00" text-anchor="middle" x="321.9209" y="-353.3">(None, 32, 32, 32)</text>
<polyline fill="none" points="262.5967,-346.5 381.2451,-346.5 " stroke="#000000"/>
<text fill="#000000" font-family="Times,serif" font-size="14.00" text-anchor="middle" x="321.9209" y="-331.3">(None, 32, 16, 16)</text>
</g>
<!-- 4500882768&#45;&gt;4500274000 -->
<g class="edge" id="edge4">
<title>4500882768-&gt;4500274000</title>
<path d="M191.7813,-405.3664C191.7813,-397.1516 191.7813,-387.6579 191.7813,-378.7252" fill="none" stroke="#000000"/>
<polygon fill="#000000" points="195.2813,-378.6068 191.7813,-368.6068 188.2813,-378.6069 195.2813,-378.6068" stroke="#000000"/>
</g>
<!-- 4502608528 -->
<g class="node" id="node6">
<title>4502608528</title>
<polygon fill="none" points="48.9897,-243.5 48.9897,-287.5 334.5728,-287.5 334.5728,-243.5 48.9897,-243.5" stroke="#000000"/>
<text fill="#000000" font-family="Times,serif" font-size="14.00" text-anchor="middle" x="104.6226" y="-261.3">flatten_2: Flatten</text>
<polyline fill="none" points="160.2554,-243.5 160.2554,-287.5 " stroke="#000000"/>
<text fill="#000000" font-family="Times,serif" font-size="14.00" text-anchor="middle" x="188.0898" y="-272.3">input:</text>
<polyline fill="none" points="160.2554,-265.5 215.9243,-265.5 " stroke="#000000"/>
<text fill="#000000" font-family="Times,serif" font-size="14.00" text-anchor="middle" x="188.0898" y="-250.3">output:</text>
<polyline fill="none" points="215.9243,-243.5 215.9243,-287.5 " stroke="#000000"/>
<text fill="#000000" font-family="Times,serif" font-size="14.00" text-anchor="middle" x="275.2485" y="-272.3">(None, 32, 16, 16)</text>
<polyline fill="none" points="215.9243,-265.5 334.5728,-265.5 " stroke="#000000"/>
<text fill="#000000" font-family="Times,serif" font-size="14.00" text-anchor="middle" x="275.2485" y="-250.3">(None, 8192)</text>
</g>
<!-- 4500274000&#45;&gt;4502608528 -->
<g class="edge" id="edge5">
<title>4500274000-&gt;4502608528</title>
<path d="M191.7813,-324.3664C191.7813,-316.1516 191.7813,-306.6579 191.7813,-297.7252" fill="none" stroke="#000000"/>
<polygon fill="#000000" points="195.2813,-297.6068 191.7813,-287.6068 188.2813,-297.6069 195.2813,-297.6068" stroke="#000000"/>
</g>
<!-- 4500887696 -->
<g class="node" id="node7">
<title>4500887696</title>
<polygon fill="none" points="66.4966,-162.5 66.4966,-206.5 317.0659,-206.5 317.0659,-162.5 66.4966,-162.5" stroke="#000000"/>
<text fill="#000000" font-family="Times,serif" font-size="14.00" text-anchor="middle" x="118.6226" y="-180.3">dense_2: Dense</text>
<polyline fill="none" points="170.7485,-162.5 170.7485,-206.5 " stroke="#000000"/>
<text fill="#000000" font-family="Times,serif" font-size="14.00" text-anchor="middle" x="198.583" y="-191.3">input:</text>
<polyline fill="none" points="170.7485,-184.5 226.4175,-184.5 " stroke="#000000"/>
<text fill="#000000" font-family="Times,serif" font-size="14.00" text-anchor="middle" x="198.583" y="-169.3">output:</text>
<polyline fill="none" points="226.4175,-162.5 226.4175,-206.5 " stroke="#000000"/>
<text fill="#000000" font-family="Times,serif" font-size="14.00" text-anchor="middle" x="271.7417" y="-191.3">(None, 8192)</text>
<polyline fill="none" points="226.4175,-184.5 317.0659,-184.5 " stroke="#000000"/>
<text fill="#000000" font-family="Times,serif" font-size="14.00" text-anchor="middle" x="271.7417" y="-169.3">(None, 512)</text>
</g>
<!-- 4502608528&#45;&gt;4500887696 -->
<g class="edge" id="edge6">
<title>4502608528-&gt;4500887696</title>
<path d="M191.7813,-243.3664C191.7813,-235.1516 191.7813,-225.6579 191.7813,-216.7252" fill="none" stroke="#000000"/>
<polygon fill="#000000" points="195.2813,-216.6068 191.7813,-206.6068 188.2813,-216.6069 195.2813,-216.6068" stroke="#000000"/>
</g>
<!-- 4499834128 -->
<g class="node" id="node8">
<title>4499834128</title>
<polygon fill="none" points="58.3208,-81.5 58.3208,-125.5 325.2417,-125.5 325.2417,-81.5 58.3208,-81.5" stroke="#000000"/>
<text fill="#000000" font-family="Times,serif" font-size="14.00" text-anchor="middle" x="122.1226" y="-99.3">dropout_4: Dropout</text>
<polyline fill="none" points="185.9243,-81.5 185.9243,-125.5 " stroke="#000000"/>
<text fill="#000000" font-family="Times,serif" font-size="14.00" text-anchor="middle" x="213.7588" y="-110.3">input:</text>
<polyline fill="none" points="185.9243,-103.5 241.5933,-103.5 " stroke="#000000"/>
<text fill="#000000" font-family="Times,serif" font-size="14.00" text-anchor="middle" x="213.7588" y="-88.3">output:</text>
<polyline fill="none" points="241.5933,-81.5 241.5933,-125.5 " stroke="#000000"/>
<text fill="#000000" font-family="Times,serif" font-size="14.00" text-anchor="middle" x="283.4175" y="-110.3">(None, 512)</text>
<polyline fill="none" points="241.5933,-103.5 325.2417,-103.5 " stroke="#000000"/>
<text fill="#000000" font-family="Times,serif" font-size="14.00" text-anchor="middle" x="283.4175" y="-88.3">(None, 512)</text>
</g>
<!-- 4500887696&#45;&gt;4499834128 -->
<g class="edge" id="edge7">
<title>4500887696-&gt;4499834128</title>
<path d="M191.7813,-162.3664C191.7813,-154.1516 191.7813,-144.6579 191.7813,-135.7252" fill="none" stroke="#000000"/>
<polygon fill="#000000" points="195.2813,-135.6068 191.7813,-125.6068 188.2813,-135.6069 195.2813,-135.6068" stroke="#000000"/>
</g>
<!-- 4499764432 -->
<g class="node" id="node9">
<title>4499764432</title>
<polygon fill="none" points="69.9966,-.5 69.9966,-44.5 313.5659,-44.5 313.5659,-.5 69.9966,-.5" stroke="#000000"/>
<text fill="#000000" font-family="Times,serif" font-size="14.00" text-anchor="middle" x="122.1226" y="-18.3">dense_3: Dense</text>
<polyline fill="none" points="174.2485,-.5 174.2485,-44.5 " stroke="#000000"/>
<text fill="#000000" font-family="Times,serif" font-size="14.00" text-anchor="middle" x="202.083" y="-29.3">input:</text>
<polyline fill="none" points="174.2485,-22.5 229.9175,-22.5 " stroke="#000000"/>
<text fill="#000000" font-family="Times,serif" font-size="14.00" text-anchor="middle" x="202.083" y="-7.3">output:</text>
<polyline fill="none" points="229.9175,-.5 229.9175,-44.5 " stroke="#000000"/>
<text fill="#000000" font-family="Times,serif" font-size="14.00" text-anchor="middle" x="271.7417" y="-29.3">(None, 512)</text>
<polyline fill="none" points="229.9175,-22.5 313.5659,-22.5 " stroke="#000000"/>
<text fill="#000000" font-family="Times,serif" font-size="14.00" text-anchor="middle" x="271.7417" y="-7.3">(None, 10)</text>
</g>
<!-- 4499834128&#45;&gt;4499764432 -->
<g class="edge" id="edge8">
<title>4499834128-&gt;4499764432</title>
<path d="M191.7813,-81.3664C191.7813,-73.1516 191.7813,-63.6579 191.7813,-54.7252" fill="none" stroke="#000000"/>
<polygon fill="#000000" points="195.2813,-54.6068 191.7813,-44.6068 188.2813,-54.6069 195.2813,-54.6068" stroke="#000000"/>
</g>
</g>
</svg>